<svg viewBox="0 0 120 120" xmlns="http://www.w3.org/2000/svg">
  <g fill-rule="evenodd" fill="white">
    <path d="M 108 24
             A  60 60 143 0 0   0  60
                40 40  90 0 1  40  20
                10 10 180 0 1  40  40
                20 20 240 1 0  60  60
                10 10 180 0 1  80  60
                20 20  90 0 0 100  80
                10 10 143 0 1 108  96
                60 60  74 0 0 108  24
                10 10 143 0 1 100  40
                10 10 217 1 1 108  24"/>
    <path d="M 108 96
             A  10 10  37 0 1 100 100
                40 40  69 0 1  70  86.6
                40 40 159 0 1   0  60
                60 60 143 0 0 108  96"/>
  </g>
</svg>
